<mxfile host="app.diagrams.net" modified="2023-09-25T13:27:08.042Z" agent="Mozilla/5.0 (X11; Linux x86_64; rv:109.0) Gecko/20100101 Firefox/117.0" etag="k_8SjaVMTYamBy3dv0ml" version="21.8.2" type="device">
  <diagram id="C5RBs43oDa-KdzZeNtuy" name="Page-1">
    <mxGraphModel dx="989" dy="503" grid="1" gridSize="10" guides="1" tooltips="1" connect="1" arrows="1" fold="1" page="1" pageScale="1" pageWidth="827" pageHeight="1169" math="0" shadow="0">
      <root>
        <mxCell id="WIyWlLk6GJQsqaUBKTNV-0" />
        <mxCell id="WIyWlLk6GJQsqaUBKTNV-1" parent="WIyWlLk6GJQsqaUBKTNV-0" />
        <mxCell id="zkfFHV4jXpPFQw0GAbJ--0" value="Département" style="swimlane;fontStyle=2;align=center;verticalAlign=top;childLayout=stackLayout;horizontal=1;startSize=26;horizontalStack=0;resizeParent=1;resizeLast=0;collapsible=1;marginBottom=0;rounded=0;shadow=0;strokeWidth=1;" parent="WIyWlLk6GJQsqaUBKTNV-1" vertex="1">
          <mxGeometry x="560" y="535" width="160" height="80" as="geometry">
            <mxRectangle x="230" y="140" width="160" height="26" as="alternateBounds" />
          </mxGeometry>
        </mxCell>
        <mxCell id="zkfFHV4jXpPFQw0GAbJ--1" value="Nom" style="text;align=left;verticalAlign=top;spacingLeft=4;spacingRight=4;overflow=hidden;rotatable=0;points=[[0,0.5],[1,0.5]];portConstraint=eastwest;" parent="zkfFHV4jXpPFQw0GAbJ--0" vertex="1">
          <mxGeometry y="26" width="160" height="26" as="geometry" />
        </mxCell>
        <mxCell id="zkfFHV4jXpPFQw0GAbJ--2" value="NuméroUnique" style="text;align=left;verticalAlign=top;spacingLeft=4;spacingRight=4;overflow=hidden;rotatable=0;points=[[0,0.5],[1,0.5]];portConstraint=eastwest;rounded=0;shadow=0;html=0;" parent="zkfFHV4jXpPFQw0GAbJ--0" vertex="1">
          <mxGeometry y="52" width="160" height="26" as="geometry" />
        </mxCell>
        <mxCell id="zkfFHV4jXpPFQw0GAbJ--6" value="Employé" style="swimlane;fontStyle=0;align=center;verticalAlign=top;childLayout=stackLayout;horizontal=1;startSize=26;horizontalStack=0;resizeParent=1;resizeLast=0;collapsible=1;marginBottom=0;rounded=0;shadow=0;strokeWidth=1;" parent="WIyWlLk6GJQsqaUBKTNV-1" vertex="1">
          <mxGeometry x="220" y="430" width="160" height="290" as="geometry">
            <mxRectangle x="130" y="380" width="160" height="26" as="alternateBounds" />
          </mxGeometry>
        </mxCell>
        <mxCell id="zkfFHV4jXpPFQw0GAbJ--7" value="Prénom" style="text;align=left;verticalAlign=top;spacingLeft=4;spacingRight=4;overflow=hidden;rotatable=0;points=[[0,0.5],[1,0.5]];portConstraint=eastwest;" parent="zkfFHV4jXpPFQw0GAbJ--6" vertex="1">
          <mxGeometry y="26" width="160" height="26" as="geometry" />
        </mxCell>
        <mxCell id="zkfFHV4jXpPFQw0GAbJ--8" value="Nom" style="text;align=left;verticalAlign=top;spacingLeft=4;spacingRight=4;overflow=hidden;rotatable=0;points=[[0,0.5],[1,0.5]];portConstraint=eastwest;rounded=0;shadow=0;html=0;" parent="zkfFHV4jXpPFQw0GAbJ--6" vertex="1">
          <mxGeometry y="52" width="160" height="26" as="geometry" />
        </mxCell>
        <mxCell id="5Jb_8API2Wo0Xv9u8dFb-1" value="NumAVS" style="text;align=left;verticalAlign=top;spacingLeft=4;spacingRight=4;overflow=hidden;rotatable=0;points=[[0,0.5],[1,0.5]];portConstraint=eastwest;rounded=0;shadow=0;html=0;" vertex="1" parent="zkfFHV4jXpPFQw0GAbJ--6">
          <mxGeometry y="78" width="160" height="26" as="geometry" />
        </mxCell>
        <mxCell id="5Jb_8API2Wo0Xv9u8dFb-3" value="Sexe" style="text;align=left;verticalAlign=top;spacingLeft=4;spacingRight=4;overflow=hidden;rotatable=0;points=[[0,0.5],[1,0.5]];portConstraint=eastwest;rounded=0;shadow=0;html=0;" vertex="1" parent="zkfFHV4jXpPFQw0GAbJ--6">
          <mxGeometry y="104" width="160" height="26" as="geometry" />
        </mxCell>
        <mxCell id="5Jb_8API2Wo0Xv9u8dFb-4" value="DateNaissance" style="text;align=left;verticalAlign=top;spacingLeft=4;spacingRight=4;overflow=hidden;rotatable=0;points=[[0,0.5],[1,0.5]];portConstraint=eastwest;rounded=0;shadow=0;html=0;" vertex="1" parent="zkfFHV4jXpPFQw0GAbJ--6">
          <mxGeometry y="130" width="160" height="26" as="geometry" />
        </mxCell>
        <mxCell id="5Jb_8API2Wo0Xv9u8dFb-5" value="Salaire" style="text;align=left;verticalAlign=top;spacingLeft=4;spacingRight=4;overflow=hidden;rotatable=0;points=[[0,0.5],[1,0.5]];portConstraint=eastwest;rounded=0;shadow=0;html=0;" vertex="1" parent="zkfFHV4jXpPFQw0GAbJ--6">
          <mxGeometry y="156" width="160" height="26" as="geometry" />
        </mxCell>
        <mxCell id="5Jb_8API2Wo0Xv9u8dFb-2" value="Adresse &#xa;    NomRue&#xa;    NumRue&#xa;    CodePostal&#xa;    Localité&#xa;    CantonRégion&#xa;    Pays&#xa;&#xa;&#xa;" style="text;align=left;verticalAlign=top;spacingLeft=4;spacingRight=4;overflow=hidden;rotatable=0;points=[[0,0.5],[1,0.5]];portConstraint=eastwest;rounded=0;shadow=0;html=0;" vertex="1" parent="zkfFHV4jXpPFQw0GAbJ--6">
          <mxGeometry y="182" width="160" height="108" as="geometry" />
        </mxCell>
        <mxCell id="5Jb_8API2Wo0Xv9u8dFb-51" value="" style="endArrow=none;html=1;rounded=0;entryX=0;entryY=0.5;entryDx=0;entryDy=0;exitX=0;exitY=0.5;exitDx=0;exitDy=0;" edge="1" parent="zkfFHV4jXpPFQw0GAbJ--6" source="5Jb_8API2Wo0Xv9u8dFb-2" target="5Jb_8API2Wo0Xv9u8dFb-4">
          <mxGeometry width="50" height="50" relative="1" as="geometry">
            <mxPoint x="-100" y="240" as="sourcePoint" />
            <mxPoint x="-70" y="140" as="targetPoint" />
            <Array as="points">
              <mxPoint x="-100" y="236" />
              <mxPoint x="-100" y="143" />
            </Array>
          </mxGeometry>
        </mxCell>
        <mxCell id="5Jb_8API2Wo0Xv9u8dFb-52" value="&lt;div&gt;Supervise&lt;/div&gt;&lt;div&gt;|&lt;/div&gt;&lt;div&gt;v&lt;br&gt;&lt;/div&gt;" style="edgeLabel;html=1;align=center;verticalAlign=middle;resizable=0;points=[];" vertex="1" connectable="0" parent="5Jb_8API2Wo0Xv9u8dFb-51">
          <mxGeometry x="-0.0239" y="-2" relative="1" as="geometry">
            <mxPoint x="-32" y="-8" as="offset" />
          </mxGeometry>
        </mxCell>
        <mxCell id="5Jb_8API2Wo0Xv9u8dFb-53" value="1" style="edgeLabel;html=1;align=center;verticalAlign=middle;resizable=0;points=[];" vertex="1" connectable="0" parent="5Jb_8API2Wo0Xv9u8dFb-51">
          <mxGeometry x="0.8225" relative="1" as="geometry">
            <mxPoint x="6" y="-13" as="offset" />
          </mxGeometry>
        </mxCell>
        <mxCell id="5Jb_8API2Wo0Xv9u8dFb-54" value="1...*" style="edgeLabel;html=1;align=center;verticalAlign=middle;resizable=0;points=[];" vertex="1" connectable="0" parent="5Jb_8API2Wo0Xv9u8dFb-51">
          <mxGeometry x="-0.8567" y="2" relative="1" as="geometry">
            <mxPoint y="12" as="offset" />
          </mxGeometry>
        </mxCell>
        <mxCell id="zkfFHV4jXpPFQw0GAbJ--17" value="Projet" style="swimlane;fontStyle=0;align=center;verticalAlign=top;childLayout=stackLayout;horizontal=1;startSize=26;horizontalStack=0;resizeParent=1;resizeLast=0;collapsible=1;marginBottom=0;rounded=0;shadow=0;strokeWidth=1;" parent="WIyWlLk6GJQsqaUBKTNV-1" vertex="1">
          <mxGeometry x="560" y="800" width="160" height="110" as="geometry">
            <mxRectangle x="550" y="140" width="160" height="26" as="alternateBounds" />
          </mxGeometry>
        </mxCell>
        <mxCell id="zkfFHV4jXpPFQw0GAbJ--18" value="Nom" style="text;align=left;verticalAlign=top;spacingLeft=4;spacingRight=4;overflow=hidden;rotatable=0;points=[[0,0.5],[1,0.5]];portConstraint=eastwest;" parent="zkfFHV4jXpPFQw0GAbJ--17" vertex="1">
          <mxGeometry y="26" width="160" height="26" as="geometry" />
        </mxCell>
        <mxCell id="zkfFHV4jXpPFQw0GAbJ--19" value="NuméroUnique" style="text;align=left;verticalAlign=top;spacingLeft=4;spacingRight=4;overflow=hidden;rotatable=0;points=[[0,0.5],[1,0.5]];portConstraint=eastwest;rounded=0;shadow=0;html=0;" parent="zkfFHV4jXpPFQw0GAbJ--17" vertex="1">
          <mxGeometry y="52" width="160" height="26" as="geometry" />
        </mxCell>
        <mxCell id="zkfFHV4jXpPFQw0GAbJ--20" value="Emplacement" style="text;align=left;verticalAlign=top;spacingLeft=4;spacingRight=4;overflow=hidden;rotatable=0;points=[[0,0.5],[1,0.5]];portConstraint=eastwest;rounded=0;shadow=0;html=0;" parent="zkfFHV4jXpPFQw0GAbJ--17" vertex="1">
          <mxGeometry y="78" width="160" height="26" as="geometry" />
        </mxCell>
        <mxCell id="5Jb_8API2Wo0Xv9u8dFb-7" value="Locaux" style="swimlane;fontStyle=0;align=center;verticalAlign=top;childLayout=stackLayout;horizontal=1;startSize=26;horizontalStack=0;resizeParent=1;resizeLast=0;collapsible=1;marginBottom=0;rounded=0;shadow=0;strokeWidth=1;" vertex="1" parent="WIyWlLk6GJQsqaUBKTNV-1">
          <mxGeometry x="560" y="400" width="160" height="60" as="geometry">
            <mxRectangle x="550" y="140" width="160" height="26" as="alternateBounds" />
          </mxGeometry>
        </mxCell>
        <mxCell id="5Jb_8API2Wo0Xv9u8dFb-12" value="" style="endArrow=none;html=1;rounded=0;entryX=0;entryY=0.5;entryDx=0;entryDy=0;exitX=1;exitY=0.5;exitDx=0;exitDy=0;" edge="1" parent="WIyWlLk6GJQsqaUBKTNV-1">
          <mxGeometry width="50" height="50" relative="1" as="geometry">
            <mxPoint x="380" y="603.43" as="sourcePoint" />
            <mxPoint x="559.9999999999998" y="604.43" as="targetPoint" />
            <Array as="points" />
          </mxGeometry>
        </mxCell>
        <mxCell id="5Jb_8API2Wo0Xv9u8dFb-13" value="&lt;div&gt;1&lt;br&gt;&lt;/div&gt;" style="edgeLabel;html=1;align=center;verticalAlign=middle;resizable=0;points=[];" vertex="1" connectable="0" parent="5Jb_8API2Wo0Xv9u8dFb-12">
          <mxGeometry x="-0.4667" relative="1" as="geometry">
            <mxPoint x="-38" y="-8" as="offset" />
          </mxGeometry>
        </mxCell>
        <mxCell id="5Jb_8API2Wo0Xv9u8dFb-14" value="&lt;div&gt;1&lt;br&gt;&lt;/div&gt;" style="edgeLabel;html=1;align=center;verticalAlign=middle;resizable=0;points=[];" vertex="1" connectable="0" parent="5Jb_8API2Wo0Xv9u8dFb-12">
          <mxGeometry x="0.5445" y="-1" relative="1" as="geometry">
            <mxPoint x="25" y="-10" as="offset" />
          </mxGeometry>
        </mxCell>
        <mxCell id="5Jb_8API2Wo0Xv9u8dFb-18" value="Dirige -&amp;gt;" style="edgeLabel;html=1;align=center;verticalAlign=middle;resizable=0;points=[];" vertex="1" connectable="0" parent="5Jb_8API2Wo0Xv9u8dFb-12">
          <mxGeometry x="0.1331" y="4" relative="1" as="geometry">
            <mxPoint x="-12" y="-15" as="offset" />
          </mxGeometry>
        </mxCell>
        <mxCell id="5Jb_8API2Wo0Xv9u8dFb-17" value="Dirige" style="swimlane;fontStyle=0;align=center;verticalAlign=top;childLayout=stackLayout;horizontal=1;startSize=26;horizontalStack=0;resizeParent=1;resizeLast=0;collapsible=1;marginBottom=0;rounded=0;shadow=0;strokeWidth=1;" vertex="1" parent="WIyWlLk6GJQsqaUBKTNV-1">
          <mxGeometry x="420" y="655.43" width="100" height="52" as="geometry">
            <mxRectangle x="550" y="140" width="160" height="26" as="alternateBounds" />
          </mxGeometry>
        </mxCell>
        <mxCell id="5Jb_8API2Wo0Xv9u8dFb-20" value="Date" style="text;align=left;verticalAlign=top;spacingLeft=4;spacingRight=4;overflow=hidden;rotatable=0;points=[[0,0.5],[1,0.5]];portConstraint=eastwest;" vertex="1" parent="5Jb_8API2Wo0Xv9u8dFb-17">
          <mxGeometry y="26" width="100" height="26" as="geometry" />
        </mxCell>
        <mxCell id="5Jb_8API2Wo0Xv9u8dFb-19" value="" style="endArrow=none;html=1;rounded=0;exitX=0.5;exitY=0;exitDx=0;exitDy=0;" edge="1" parent="WIyWlLk6GJQsqaUBKTNV-1" source="5Jb_8API2Wo0Xv9u8dFb-17">
          <mxGeometry width="50" height="50" relative="1" as="geometry">
            <mxPoint x="330" y="835.43" as="sourcePoint" />
            <mxPoint x="470" y="605.43" as="targetPoint" />
          </mxGeometry>
        </mxCell>
        <mxCell id="5Jb_8API2Wo0Xv9u8dFb-21" value="" style="endArrow=none;html=1;rounded=0;exitX=0.5;exitY=0;exitDx=0;exitDy=0;entryX=0.5;entryY=1;entryDx=0;entryDy=0;" edge="1" parent="WIyWlLk6GJQsqaUBKTNV-1" source="zkfFHV4jXpPFQw0GAbJ--0" target="5Jb_8API2Wo0Xv9u8dFb-7">
          <mxGeometry width="50" height="50" relative="1" as="geometry">
            <mxPoint x="390" y="600" as="sourcePoint" />
            <mxPoint x="440" y="550" as="targetPoint" />
          </mxGeometry>
        </mxCell>
        <mxCell id="5Jb_8API2Wo0Xv9u8dFb-22" value="&lt;div&gt;^&lt;br&gt;&lt;/div&gt;&lt;div&gt;|&lt;br&gt;&lt;/div&gt;&lt;div&gt;Détient&lt;/div&gt;" style="edgeLabel;html=1;align=center;verticalAlign=middle;resizable=0;points=[];" vertex="1" connectable="0" parent="5Jb_8API2Wo0Xv9u8dFb-21">
          <mxGeometry x="-0.2533" y="2" relative="1" as="geometry">
            <mxPoint x="-28" y="-12" as="offset" />
          </mxGeometry>
        </mxCell>
        <mxCell id="5Jb_8API2Wo0Xv9u8dFb-23" value="1...*" style="edgeLabel;html=1;align=center;verticalAlign=middle;resizable=0;points=[];" vertex="1" connectable="0" parent="5Jb_8API2Wo0Xv9u8dFb-21">
          <mxGeometry x="-0.5733" y="-3" relative="1" as="geometry">
            <mxPoint x="7" as="offset" />
          </mxGeometry>
        </mxCell>
        <mxCell id="5Jb_8API2Wo0Xv9u8dFb-24" value="*" style="edgeLabel;html=1;align=center;verticalAlign=middle;resizable=0;points=[];" vertex="1" connectable="0" parent="5Jb_8API2Wo0Xv9u8dFb-21">
          <mxGeometry x="0.5733" y="1" relative="1" as="geometry">
            <mxPoint x="11" as="offset" />
          </mxGeometry>
        </mxCell>
        <mxCell id="5Jb_8API2Wo0Xv9u8dFb-25" value="" style="endArrow=none;html=1;rounded=0;entryX=0;entryY=0.5;entryDx=0;entryDy=0;exitX=0.5;exitY=1;exitDx=0;exitDy=0;" edge="1" parent="WIyWlLk6GJQsqaUBKTNV-1" source="zkfFHV4jXpPFQw0GAbJ--6" target="zkfFHV4jXpPFQw0GAbJ--19">
          <mxGeometry width="50" height="50" relative="1" as="geometry">
            <mxPoint x="340" y="890" as="sourcePoint" />
            <mxPoint x="390" y="840" as="targetPoint" />
            <Array as="points">
              <mxPoint x="300" y="865" />
            </Array>
          </mxGeometry>
        </mxCell>
        <mxCell id="5Jb_8API2Wo0Xv9u8dFb-30" value="Travaille_sur -&amp;gt;" style="edgeLabel;html=1;align=center;verticalAlign=middle;resizable=0;points=[];" vertex="1" connectable="0" parent="5Jb_8API2Wo0Xv9u8dFb-25">
          <mxGeometry x="0.1951" y="2" relative="1" as="geometry">
            <mxPoint x="-17" y="15" as="offset" />
          </mxGeometry>
        </mxCell>
        <mxCell id="5Jb_8API2Wo0Xv9u8dFb-31" value="*" style="edgeLabel;html=1;align=center;verticalAlign=middle;resizable=0;points=[];" vertex="1" connectable="0" parent="5Jb_8API2Wo0Xv9u8dFb-25">
          <mxGeometry x="0.8519" y="-2" relative="1" as="geometry">
            <mxPoint y="-17" as="offset" />
          </mxGeometry>
        </mxCell>
        <mxCell id="5Jb_8API2Wo0Xv9u8dFb-32" value="1...*" style="edgeLabel;html=1;align=center;verticalAlign=middle;resizable=0;points=[];" vertex="1" connectable="0" parent="5Jb_8API2Wo0Xv9u8dFb-25">
          <mxGeometry x="-0.8469" y="1" relative="1" as="geometry">
            <mxPoint x="19" y="-11" as="offset" />
          </mxGeometry>
        </mxCell>
        <mxCell id="5Jb_8API2Wo0Xv9u8dFb-26" value="" style="endArrow=none;html=1;rounded=0;entryX=0.5;entryY=0;entryDx=0;entryDy=0;exitX=0.494;exitY=1.192;exitDx=0;exitDy=0;exitPerimeter=0;" edge="1" parent="WIyWlLk6GJQsqaUBKTNV-1" source="zkfFHV4jXpPFQw0GAbJ--2">
          <mxGeometry width="50" height="50" relative="1" as="geometry">
            <mxPoint x="640" y="620" as="sourcePoint" />
            <mxPoint x="640" y="797" as="targetPoint" />
          </mxGeometry>
        </mxCell>
        <mxCell id="5Jb_8API2Wo0Xv9u8dFb-27" value="&lt;div&gt;Contrôle&lt;/div&gt;&lt;div&gt;|&lt;/div&gt;&lt;div&gt;v&lt;br&gt;&lt;/div&gt;" style="edgeLabel;html=1;align=center;verticalAlign=middle;resizable=0;points=[];" vertex="1" connectable="0" parent="5Jb_8API2Wo0Xv9u8dFb-26">
          <mxGeometry x="-0.0486" y="4" relative="1" as="geometry">
            <mxPoint x="-34" as="offset" />
          </mxGeometry>
        </mxCell>
        <mxCell id="5Jb_8API2Wo0Xv9u8dFb-28" value="1...N" style="edgeLabel;html=1;align=center;verticalAlign=middle;resizable=0;points=[];" vertex="1" connectable="0" parent="5Jb_8API2Wo0Xv9u8dFb-26">
          <mxGeometry x="-0.773" relative="1" as="geometry">
            <mxPoint x="20" as="offset" />
          </mxGeometry>
        </mxCell>
        <mxCell id="5Jb_8API2Wo0Xv9u8dFb-29" value="1...*" style="edgeLabel;html=1;align=center;verticalAlign=middle;resizable=0;points=[];" vertex="1" connectable="0" parent="5Jb_8API2Wo0Xv9u8dFb-26">
          <mxGeometry x="0.7543" y="1" relative="1" as="geometry">
            <mxPoint x="19" as="offset" />
          </mxGeometry>
        </mxCell>
        <mxCell id="5Jb_8API2Wo0Xv9u8dFb-33" value="Ayants_Droit" style="swimlane;fontStyle=0;align=center;verticalAlign=top;childLayout=stackLayout;horizontal=1;startSize=26;horizontalStack=0;resizeParent=1;resizeLast=0;collapsible=1;marginBottom=0;rounded=0;shadow=0;strokeWidth=1;" vertex="1" parent="WIyWlLk6GJQsqaUBKTNV-1">
          <mxGeometry x="220" y="140" width="160" height="140" as="geometry">
            <mxRectangle x="130" y="380" width="160" height="26" as="alternateBounds" />
          </mxGeometry>
        </mxCell>
        <mxCell id="5Jb_8API2Wo0Xv9u8dFb-34" value="Prénom" style="text;align=left;verticalAlign=top;spacingLeft=4;spacingRight=4;overflow=hidden;rotatable=0;points=[[0,0.5],[1,0.5]];portConstraint=eastwest;" vertex="1" parent="5Jb_8API2Wo0Xv9u8dFb-33">
          <mxGeometry y="26" width="160" height="26" as="geometry" />
        </mxCell>
        <mxCell id="5Jb_8API2Wo0Xv9u8dFb-35" value="Nom" style="text;align=left;verticalAlign=top;spacingLeft=4;spacingRight=4;overflow=hidden;rotatable=0;points=[[0,0.5],[1,0.5]];portConstraint=eastwest;rounded=0;shadow=0;html=0;" vertex="1" parent="5Jb_8API2Wo0Xv9u8dFb-33">
          <mxGeometry y="52" width="160" height="26" as="geometry" />
        </mxCell>
        <mxCell id="5Jb_8API2Wo0Xv9u8dFb-37" value="Sexe" style="text;align=left;verticalAlign=top;spacingLeft=4;spacingRight=4;overflow=hidden;rotatable=0;points=[[0,0.5],[1,0.5]];portConstraint=eastwest;rounded=0;shadow=0;html=0;" vertex="1" parent="5Jb_8API2Wo0Xv9u8dFb-33">
          <mxGeometry y="78" width="160" height="26" as="geometry" />
        </mxCell>
        <mxCell id="5Jb_8API2Wo0Xv9u8dFb-38" value="DateNaissance" style="text;align=left;verticalAlign=top;spacingLeft=4;spacingRight=4;overflow=hidden;rotatable=0;points=[[0,0.5],[1,0.5]];portConstraint=eastwest;rounded=0;shadow=0;html=0;" vertex="1" parent="5Jb_8API2Wo0Xv9u8dFb-33">
          <mxGeometry y="104" width="160" height="26" as="geometry" />
        </mxCell>
        <mxCell id="5Jb_8API2Wo0Xv9u8dFb-41" value="" style="endArrow=none;html=1;rounded=0;exitX=0.5;exitY=0;exitDx=0;exitDy=0;entryX=0.5;entryY=1;entryDx=0;entryDy=0;" edge="1" parent="WIyWlLk6GJQsqaUBKTNV-1" source="zkfFHV4jXpPFQw0GAbJ--6" target="5Jb_8API2Wo0Xv9u8dFb-33">
          <mxGeometry width="50" height="50" relative="1" as="geometry">
            <mxPoint x="430" y="440" as="sourcePoint" />
            <mxPoint x="480" y="390" as="targetPoint" />
          </mxGeometry>
        </mxCell>
        <mxCell id="5Jb_8API2Wo0Xv9u8dFb-42" value="&lt;div&gt;^&lt;br&gt;&lt;/div&gt;&lt;div&gt;|&lt;br&gt;&lt;/div&gt;&lt;div&gt;Lien_famillial&lt;/div&gt;" style="edgeLabel;html=1;align=center;verticalAlign=middle;resizable=0;points=[];" vertex="1" connectable="0" parent="5Jb_8API2Wo0Xv9u8dFb-41">
          <mxGeometry x="0.0769" y="-4" relative="1" as="geometry">
            <mxPoint x="-44" as="offset" />
          </mxGeometry>
        </mxCell>
        <mxCell id="5Jb_8API2Wo0Xv9u8dFb-43" value="*" style="edgeLabel;html=1;align=center;verticalAlign=middle;resizable=0;points=[];" vertex="1" connectable="0" parent="5Jb_8API2Wo0Xv9u8dFb-41">
          <mxGeometry x="0.7231" y="3" relative="1" as="geometry">
            <mxPoint x="13" as="offset" />
          </mxGeometry>
        </mxCell>
        <mxCell id="5Jb_8API2Wo0Xv9u8dFb-44" value="1...*" style="edgeLabel;html=1;align=center;verticalAlign=middle;resizable=0;points=[];" vertex="1" connectable="0" parent="5Jb_8API2Wo0Xv9u8dFb-41">
          <mxGeometry x="-0.6462" relative="1" as="geometry">
            <mxPoint x="10" y="3" as="offset" />
          </mxGeometry>
        </mxCell>
        <mxCell id="5Jb_8API2Wo0Xv9u8dFb-45" value="Lien_Famillial" style="swimlane;fontStyle=0;align=center;verticalAlign=top;childLayout=stackLayout;horizontal=1;startSize=26;horizontalStack=0;resizeParent=1;resizeLast=0;collapsible=1;marginBottom=0;rounded=0;shadow=0;strokeWidth=1;" vertex="1" parent="WIyWlLk6GJQsqaUBKTNV-1">
          <mxGeometry x="350" y="330" width="100" height="52" as="geometry">
            <mxRectangle x="550" y="140" width="160" height="26" as="alternateBounds" />
          </mxGeometry>
        </mxCell>
        <mxCell id="5Jb_8API2Wo0Xv9u8dFb-46" value="TypeDeLien" style="text;align=left;verticalAlign=top;spacingLeft=4;spacingRight=4;overflow=hidden;rotatable=0;points=[[0,0.5],[1,0.5]];portConstraint=eastwest;" vertex="1" parent="5Jb_8API2Wo0Xv9u8dFb-45">
          <mxGeometry y="26" width="100" height="26" as="geometry" />
        </mxCell>
        <mxCell id="5Jb_8API2Wo0Xv9u8dFb-47" value="" style="endArrow=none;html=1;rounded=0;entryX=0;entryY=0.5;entryDx=0;entryDy=0;" edge="1" parent="WIyWlLk6GJQsqaUBKTNV-1" target="5Jb_8API2Wo0Xv9u8dFb-45">
          <mxGeometry width="50" height="50" relative="1" as="geometry">
            <mxPoint x="300" y="356" as="sourcePoint" />
            <mxPoint x="180" y="490" as="targetPoint" />
          </mxGeometry>
        </mxCell>
        <mxCell id="5Jb_8API2Wo0Xv9u8dFb-55" value="" style="endArrow=none;html=1;rounded=0;entryX=0;entryY=0.5;entryDx=0;entryDy=0;exitX=1;exitY=0.5;exitDx=0;exitDy=0;" edge="1" parent="WIyWlLk6GJQsqaUBKTNV-1">
          <mxGeometry width="50" height="50" relative="1" as="geometry">
            <mxPoint x="380" y="538.43" as="sourcePoint" />
            <mxPoint x="559.9999999999998" y="539.43" as="targetPoint" />
            <Array as="points" />
          </mxGeometry>
        </mxCell>
        <mxCell id="5Jb_8API2Wo0Xv9u8dFb-56" value="&lt;div&gt;1&lt;br&gt;&lt;/div&gt;" style="edgeLabel;html=1;align=center;verticalAlign=middle;resizable=0;points=[];" vertex="1" connectable="0" parent="5Jb_8API2Wo0Xv9u8dFb-55">
          <mxGeometry x="-0.4667" relative="1" as="geometry">
            <mxPoint x="-38" y="-8" as="offset" />
          </mxGeometry>
        </mxCell>
        <mxCell id="5Jb_8API2Wo0Xv9u8dFb-57" value="&lt;div&gt;*&lt;br&gt;&lt;/div&gt;" style="edgeLabel;html=1;align=center;verticalAlign=middle;resizable=0;points=[];" vertex="1" connectable="0" parent="5Jb_8API2Wo0Xv9u8dFb-55">
          <mxGeometry x="0.5445" y="-1" relative="1" as="geometry">
            <mxPoint x="25" y="-10" as="offset" />
          </mxGeometry>
        </mxCell>
        <mxCell id="5Jb_8API2Wo0Xv9u8dFb-58" value="Travaille_pour -&amp;gt;" style="edgeLabel;html=1;align=center;verticalAlign=middle;resizable=0;points=[];" vertex="1" connectable="0" parent="5Jb_8API2Wo0Xv9u8dFb-55">
          <mxGeometry x="0.1331" y="4" relative="1" as="geometry">
            <mxPoint x="-12" y="15" as="offset" />
          </mxGeometry>
        </mxCell>
        <mxCell id="5Jb_8API2Wo0Xv9u8dFb-59" value="Traville_pour" style="swimlane;fontStyle=0;align=center;verticalAlign=top;childLayout=stackLayout;horizontal=1;startSize=26;horizontalStack=0;resizeParent=1;resizeLast=0;collapsible=1;marginBottom=0;rounded=0;shadow=0;strokeWidth=1;" vertex="1" parent="WIyWlLk6GJQsqaUBKTNV-1">
          <mxGeometry x="420" y="440" width="100" height="52" as="geometry">
            <mxRectangle x="550" y="140" width="160" height="26" as="alternateBounds" />
          </mxGeometry>
        </mxCell>
        <mxCell id="5Jb_8API2Wo0Xv9u8dFb-60" value="NombreHeures" style="text;align=left;verticalAlign=top;spacingLeft=4;spacingRight=4;overflow=hidden;rotatable=0;points=[[0,0.5],[1,0.5]];portConstraint=eastwest;" vertex="1" parent="5Jb_8API2Wo0Xv9u8dFb-59">
          <mxGeometry y="26" width="100" height="26" as="geometry" />
        </mxCell>
        <mxCell id="5Jb_8API2Wo0Xv9u8dFb-61" value="" style="endArrow=none;html=1;rounded=0;" edge="1" parent="WIyWlLk6GJQsqaUBKTNV-1" target="5Jb_8API2Wo0Xv9u8dFb-60">
          <mxGeometry width="50" height="50" relative="1" as="geometry">
            <mxPoint x="470" y="540" as="sourcePoint" />
            <mxPoint x="530" y="340" as="targetPoint" />
          </mxGeometry>
        </mxCell>
      </root>
    </mxGraphModel>
  </diagram>
</mxfile>
